<svg width="30" height="30" viewBox="0 0 30 30" fill="none" xmlns="http://www.w3.org/2000/svg">
<path d="M22.509 0C23.5364 0 24.5042 0.197133 25.4122 0.591398C26.3202 0.985663 27.1147 1.5233 27.7957 2.2043C28.4767 2.8853 29.0143 3.67981 29.4086 4.58781C29.8029 5.49582 30 6.46356 30 7.49104V22.4731C30 23.5006 29.8029 24.4743 29.4086 25.3943C29.0143 26.3142 28.4767 27.1147 27.7957 27.7957C27.1147 28.4767 26.3202 29.0143 25.4122 29.4086C24.5042 29.8029 23.5364 30 22.509 30H7.49104C6.46356 30 5.49582 29.8029 4.58781 29.4086C3.67981 29.0143 2.8853 28.4767 2.2043 27.7957C1.5233 27.1147 0.985663 26.3142 0.591398 25.3943C0.197133 24.4743 0 23.5006 0 22.4731V7.49104C0 6.46356 0.197133 5.49582 0.591398 4.58781C0.985663 3.67981 1.5233 2.8853 2.2043 2.2043C2.8853 1.5233 3.67981 0.985663 4.58781 0.591398C5.49582 0.197133 6.46356 0 7.49104 0H22.509ZM6.55914 18.9247L11.0753 15.6989L6.55914 12.4731V18.9247ZM23.4409 20.3226L17.957 16.3799L15.0179 18.4946L12.043 16.3799L6.55914 20.3226V22.4731H23.4409V20.3226ZM23.4409 12.4731L18.9247 15.6989L23.4409 18.9247V12.4731ZM23.4409 7.49104H6.55914V9.67742L15.0179 15.6989L23.4409 9.67742V7.49104Z" fill="#161A30"/>
</svg>
