<svg width="30" height="30" viewBox="0 0 30 30" fill="none" xmlns="http://www.w3.org/2000/svg">
<path d="M20.9994 0.315722C20.352 -0.299278 19.231 0.120722 19.231 0.975722V6.21072C19.231 8.40072 21.1889 10.2157 23.5731 10.2157C25.0731 10.2307 27.1573 10.2307 28.9415 10.2307C29.8415 10.2307 30.3152 9.22572 29.6836 8.62572C27.4099 6.45072 23.3362 2.53572 20.9994 0.315722Z" fill="#161A30"/>
<path d="M28.4211 12.285H23.8579C20.1158 12.285 17.0684 9.39 17.0684 5.835V1.5C17.0684 0.675 16.3579 0 15.4895 0H8.79474C3.93158 0 0 3 0 8.355V21.645C0 27 3.93158 30 8.79474 30H21.2053C26.0684 30 30 27 30 21.645V13.785C30 12.96 29.2895 12.285 28.4211 12.285ZM14.2105 23.625H7.89474C7.24737 23.625 6.71053 23.115 6.71053 22.5C6.71053 21.885 7.24737 21.375 7.89474 21.375H14.2105C14.8579 21.375 15.3947 21.885 15.3947 22.5C15.3947 23.115 14.8579 23.625 14.2105 23.625ZM17.3684 17.625H7.89474C7.24737 17.625 6.71053 17.115 6.71053 16.5C6.71053 15.885 7.24737 15.375 7.89474 15.375H17.3684C18.0158 15.375 18.5526 15.885 18.5526 16.5C18.5526 17.115 18.0158 17.625 17.3684 17.625Z" fill="#161A30"/>
</svg>
